# xmcd CD database file
#
# Track frame offsets:
#	150
#	5372
#	15805
#	32073
#	36285
#	55633
#	61042
#	128911
#	135335
#	153809
#	159365
#	277731
#	283416
#	317353
#	323582
#	333087
#
# Disc length: 4618 seconds
#
# Revision: 1
# Processed by: cddbd v1.5.2PL0 Copyright (c) Steve Scherf et al.
# Submitted via: CDex 1.70beta2
#
DISCID=b8120810
DTITLE=Fachgruppe Hilfsmittel des ÖBSV - Information Motivation 01_2010
DYEAR=2010
DGENRE=Information
TTITLE0=01 01_09 Walter Lindner - Intro
TTITLE1=02 Walter Lindner - Inhalt
TTITLE2=03 Mag. Beate Hattinger, Walter Lindner - In Memorian Johann Wöllinger, Robert Horngacher
TTITLE3=04 Walter Lindner - Musik, Anmoderation Beitrag 1
TTITLE4=05 Herta Gächter - Internationaler Prontokurs in Bozen
TTITLE5=06 Walter Lindner - Musik, Anmoderation Beitrag 2
TTITLE6=07 Mag. Beate Hattinger - A-Tag 2009
TTITLE7=08 Walter Lindner - Musik, Anmoderation Beitrag 3
TTITLE8=09 Ernest Tschutschek - Hilfsmittelbörse
TTITLE9=10 Walter Lindner - Musik, Anmoderation Beitrag 4
TTITLE10=11 Franz Kirnbauer, Wolfgang Kremser - Mobil
TTITLE11=12 Walter Lindner - Musik, Anmoderation Beitrag 5
TTITLE12=13 07_32 Gerhard Fink - Vorstellung der Firma bac
TTITLE13=14 Walter Lindner - Musik, Anmoderation Beitrag 6
TTITLE14=15 Mag. Beate Hattinger - Spickzettel
TTITLE15=16 Walter Lindner - Schluss
EXTD=YEAR: 2010
EXTT0=
EXTT1=
EXTT2=
EXTT3=
EXTT4=
EXTT5=
EXTT6=
EXTT7=
EXTT8=
EXTT9=
EXTT10=
EXTT11=
EXTT12=
EXTT13=
EXTT14=
EXTT15=
PLAYORDER=
